<?xml version="1.0" encoding="utf-8"?><svg xmlns="http://www.w3.org/2000/svg" xmlns:xlink="http://www.w3.org/1999/xlink"><symbol viewBox="0 0 26 26" id="checked" xmlns="http://www.w3.org/2000/svg"><path d="M.3 14c-.2-.2-.3-.5-.3-.7s.1-.5.3-.7l1.4-1.4c.4-.4 1-.4 1.4 0l.1.1 5.5 5.9c.2.2.5.2.7 0L22.8 3.3h.1c.4-.4 1-.4 1.4 0l1.4 1.4c.4.4.4 1 0 1.4l-16 16.6c-.2.2-.4.3-.7.3-.3 0-.5-.1-.7-.3L.5 14.3.3 14z"/></symbol><symbol viewBox="0 0 47 47" id="icon-f" xmlns="http://www.w3.org/2000/svg"><defs><style>.bcls-1{fill:#9f9f9f;fill-rule:evenodd}</style></defs><path id="bicon" class="bcls-1" d="M592.847 344.311l-20.5 1.7c-.014 0-.026.008-.04.008h-.136a1.151 1.151 0 0 0-1.171 1.132v25.721a1.15 1.15 0 0 0 1.172 1.128h.136c.014 0 .026.008.04.008l.091-.008H591.3a1.15 1.15 0 0 0 1.169-1.131v-.528l.378-.032a1.141 1.141 0 0 0 1.147-1.133v-25.732a1.141 1.141 0 0 0-1.147-1.133zm-1.9 28.561a.135.135 0 0 1-.146.12h-18.629a.135.135 0 0 1-.146-.12v-25.721a.137.137 0 0 1 .146-.122H590.8a.137.137 0 0 1 .146.122v25.721zm2.025-1.693a.124.124 0 0 1-.124.122h-.093l-.788.025v-24.175a1.151 1.151 0 0 0-1.169-1.132h-5.9l7.971-.695a.123.123 0 0 1 .1.12v25.735zm-6.1-4.178h-10.736a1.166 1.166 0 0 0-1.131 1.2v.6a1.165 1.165 0 0 0 1.131 1.2h10.739a1.165 1.165 0 0 0 1.131-1.2v-.6a1.166 1.166 0 0 0-1.131-1.201zm.131 1.8a.183.183 0 0 1-.131.2h-10.736a.182.182 0 0 1-.131-.2v-.6a.181.181 0 0 1 .131-.2h10.739a.181.181 0 0 1 .131.2v.6zM581.5 363a6.5 6.5 0 1 1 6.5-6.5 6.5 6.5 0 0 1-6.5 6.5zm0-12a5.5 5.5 0 1 0 5.5 5.5 5.5 5.5 0 0 0-5.5-5.5zm1 32a23.5 23.5 0 1 1 23.5-23.5 23.527 23.527 0 0 1-23.5 23.5zm0-46a22.5 22.5 0 1 0 22.5 22.5 22.526 22.526 0 0 0-22.5-22.5z" transform="translate(-559 -336)"/></symbol><symbol viewBox="0 0 47 47" id="icon-s" xmlns="http://www.w3.org/2000/svg"><defs><style>.ccls-1{fill:#9f9f9f;fill-rule:evenodd}</style></defs><path class="ccls-1" d="M14.5 16.99h-1a2.5 2.5 0 0 1-2.5-2.5v-1a2.5 2.5 0 0 1 2.5-2.5h1a2.5 2.5 0 0 1 2.5 2.5v1a2.5 2.5 0 0 1-2.5 2.5zm-1-5a1.5 1.5 0 0 0-1.5 1.5v1a1.5 1.5 0 0 0 1.5 1.5h1a1.5 1.5 0 0 0 1.5-1.5v-1a1.5 1.5 0 0 0-1.5-1.5h-1zm22.51 3h-16v-2h16v2zM14.5 27h-1a2.5 2.5 0 0 1-2.5-2.5v-1a2.5 2.5 0 0 1 2.5-2.5h1a2.5 2.5 0 0 1 2.5 2.5v1a2.5 2.5 0 0 1-2.5 2.5zm-1-5a1.5 1.5 0 0 0-1.5 1.5v1a1.5 1.5 0 0 0 1.5 1.5h1a1.5 1.5 0 0 0 1.5-1.5v-1a1.5 1.5 0 0 0-1.5-1.5h-1zm22.51 3h-16v-2h16v2zM14.5 37h-1a2.5 2.5 0 0 1-2.5-2.5v-1a2.5 2.5 0 0 1 2.5-2.5h1a2.5 2.5 0 0 1 2.5 2.5v1a2.5 2.5 0 0 1-2.5 2.5zm-1-5a1.5 1.5 0 0 0-1.5 1.5v1a1.5 1.5 0 0 0 1.5 1.5h1a1.5 1.5 0 0 0 1.5-1.5v-1a1.5 1.5 0 0 0-1.5-1.5h-1zm22.51 3h-16v-2h16v2zM23.5 47A23.5 23.5 0 1 1 47 23.5 23.527 23.527 0 0 1 23.5 47zm0-46A22.5 22.5 0 1 0 46 23.5 22.526 22.526 0 0 0 23.5 1z"/></symbol><symbol viewBox="0 0 47 47" id="icon-th" xmlns="http://www.w3.org/2000/svg"><defs><style>.dcls-1{fill:#9f9f9f;fill-rule:evenodd}</style></defs><path id="dicon" class="dcls-1" d="M597.015 1289.99h-16v-2h16v2zm0 6h-16v-2h16v2zm0 6.01h-16v-2h16v2zm0 6h-29v-2h29v2zm0 6h-29v-2h29v2zM577 1288.99a1 1 0 0 1 1 1v9a1 1 0 0 1-1 1h-7a1 1 0 0 1-1-1v-9a1 1 0 0 1 1-1h7m0-1h-7a2 2 0 0 0-2 2v9a2 2 0 0 0 2 2h7a2 2 0 0 0 2-2v-9a2 2 0 0 0-2-2zm5.5 37.01a23.5 23.5 0 1 1 23.5-23.5 23.525 23.525 0 0 1-23.5 23.5zm0-46a22.5 22.5 0 1 0 22.5 22.5 22.524 22.524 0 0 0-22.5-22.5z" transform="translate(-559 -1278)"/></symbol><symbol viewBox="0 0 284.929 284.929" id="up-arrow" xmlns="http://www.w3.org/2000/svg"><path d="M282.082 195.285L149.028 62.24c-1.901-1.903-4.088-2.856-6.562-2.856s-4.665.953-6.567 2.856L2.856 195.285C.95 197.191 0 199.378 0 201.853c0 2.474.953 4.664 2.856 6.566l14.272 14.271c1.903 1.903 4.093 2.854 6.567 2.854s4.664-.951 6.567-2.854l112.204-112.202 112.208 112.209c1.902 1.903 4.093 2.848 6.563 2.848 2.478 0 4.668-.951 6.57-2.848l14.274-14.277c1.902-1.902 2.847-4.093 2.847-6.566.001-2.476-.944-4.666-2.846-6.569z"/></symbol></svg>